<!-- MCSS-Lite 0.3.1 icons. Inline this file once in <body>, then: <svg class="c-icon" aria-hidden="true"><use href="#mcss-icon-check"/></svg> -->
<svg xmlns="http://www.w3.org/2000/svg" aria-hidden="true" focusable="false" width="0" height="0" style="position: absolute">
  <symbol id="mcss-icon-arrow-right" viewBox="0 0 24 24"><path vector-effect="non-scaling-stroke" d="M5 12h14"/><path vector-effect="non-scaling-stroke" d="M13 6l6 6-6 6"/></symbol>
  <symbol id="mcss-icon-check" viewBox="0 0 24 24"><path vector-effect="non-scaling-stroke" d="M5 12.5l4.5 4.5L19 7"/></symbol>
  <symbol id="mcss-icon-chevron-down" viewBox="0 0 24 24"><path vector-effect="non-scaling-stroke" d="M6 9l6 6 6-6"/></symbol>
  <symbol id="mcss-icon-chevron-left" viewBox="0 0 24 24"><path vector-effect="non-scaling-stroke" d="M15 6l-6 6 6 6"/></symbol>
  <symbol id="mcss-icon-chevron-right" viewBox="0 0 24 24"><path vector-effect="non-scaling-stroke" d="M9 6l6 6-6 6"/></symbol>
  <symbol id="mcss-icon-chevron-up" viewBox="0 0 24 24"><path vector-effect="non-scaling-stroke" d="M6 15l6-6 6 6"/></symbol>
  <symbol id="mcss-icon-close" viewBox="0 0 24 24"><path vector-effect="non-scaling-stroke" d="M6 6l12 12"/><path vector-effect="non-scaling-stroke" d="M18 6L6 18"/></symbol>
  <symbol id="mcss-icon-copy" viewBox="0 0 24 24"><rect vector-effect="non-scaling-stroke" x="9" y="9" width="11" height="11" rx="2"/><path vector-effect="non-scaling-stroke" d="M15 9V6a2 2 0 0 0-2-2H6a2 2 0 0 0-2 2v7a2 2 0 0 0 2 2h3"/></symbol>
  <symbol id="mcss-icon-download" viewBox="0 0 24 24"><path vector-effect="non-scaling-stroke" d="M12 4v11"/><path vector-effect="non-scaling-stroke" d="M7 10l5 5 5-5"/><path vector-effect="non-scaling-stroke" d="M5 20h14"/></symbol>
  <symbol id="mcss-icon-edit" viewBox="0 0 24 24"><path vector-effect="non-scaling-stroke" d="M4 20h4L19 9l-4-4L4 16z"/><path vector-effect="non-scaling-stroke" d="M13 7l4 4"/></symbol>
  <symbol id="mcss-icon-error" viewBox="0 0 24 24"><path vector-effect="non-scaling-stroke" d="M8.3 3h7.4L21 8.3v7.4L15.7 21H8.3L3 15.7V8.3z"/><path vector-effect="non-scaling-stroke" d="M9.5 9.5l5 5"/><path vector-effect="non-scaling-stroke" d="M14.5 9.5l-5 5"/></symbol>
  <symbol id="mcss-icon-external-link" viewBox="0 0 24 24"><path vector-effect="non-scaling-stroke" d="M14 4h6v6"/><path vector-effect="non-scaling-stroke" d="M20 4l-9 9"/><path vector-effect="non-scaling-stroke" d="M18 14v5a1 1 0 0 1-1 1H5a1 1 0 0 1-1-1V7a1 1 0 0 1 1-1h5"/></symbol>
  <symbol id="mcss-icon-info" viewBox="0 0 24 24"><circle vector-effect="non-scaling-stroke" cx="12" cy="12" r="9"/><path vector-effect="non-scaling-stroke" d="M12 11v5"/><path vector-effect="non-scaling-stroke" d="M12 7.5v.5"/></symbol>
  <symbol id="mcss-icon-menu" viewBox="0 0 24 24"><path vector-effect="non-scaling-stroke" d="M4 7h16"/><path vector-effect="non-scaling-stroke" d="M4 12h16"/><path vector-effect="non-scaling-stroke" d="M4 17h16"/></symbol>
  <symbol id="mcss-icon-minus" viewBox="0 0 24 24"><path vector-effect="non-scaling-stroke" d="M5 12h14"/></symbol>
  <symbol id="mcss-icon-plus" viewBox="0 0 24 24"><path vector-effect="non-scaling-stroke" d="M12 5v14"/><path vector-effect="non-scaling-stroke" d="M5 12h14"/></symbol>
  <symbol id="mcss-icon-search" viewBox="0 0 24 24"><circle vector-effect="non-scaling-stroke" cx="11" cy="11" r="7"/><path vector-effect="non-scaling-stroke" d="M20 20l-4-4"/></symbol>
  <symbol id="mcss-icon-success" viewBox="0 0 24 24"><rect vector-effect="non-scaling-stroke" x="3" y="3" width="18" height="18" rx="3"/><path vector-effect="non-scaling-stroke" d="M8 12.5l3 3 5-6"/></symbol>
  <symbol id="mcss-icon-trash" viewBox="0 0 24 24"><path vector-effect="non-scaling-stroke" d="M4 7h16"/><path vector-effect="non-scaling-stroke" d="M9 7V4h6v3"/><path vector-effect="non-scaling-stroke" d="M6 7l1 12a2 2 0 0 0 2 2h6a2 2 0 0 0 2-2l1-12"/><path vector-effect="non-scaling-stroke" d="M10 11v6"/><path vector-effect="non-scaling-stroke" d="M14 11v6"/></symbol>
  <symbol id="mcss-icon-warning" viewBox="0 0 24 24"><path vector-effect="non-scaling-stroke" d="M12 3.5L21.5 20h-19z"/><path vector-effect="non-scaling-stroke" d="M12 10v4"/><path vector-effect="non-scaling-stroke" d="M12 17v.5"/></symbol>
</svg>
